<svg width="120" height="120" viewBox="0 0 120 120" fill="none" xmlns="http://www.w3.org/2000/svg">
<path fill-rule="evenodd" clip-rule="evenodd" d="M26.2233 90.1195C26.3652 90.7952 25.9325 91.4578 25.2568 91.5997C20.6865 92.5592 17.0575 93.7052 14.6019 94.9471C13.3722 95.569 12.4997 96.184 11.95 96.7604C11.4056 97.3313 11.25 97.7834 11.25 98.125C11.25 98.4538 11.3934 98.8827 11.8873 99.4226C12.3876 99.9695 13.1851 100.557 14.3172 101.156C16.5789 102.352 19.934 103.467 24.1853 104.418C32.6677 106.316 44.4468 107.5 57.5 107.5C70.5532 107.5 82.3323 106.316 90.8147 104.418C95.066 103.467 98.4211 102.352 100.683 101.156C101.815 100.557 102.612 99.9695 103.113 99.4226C103.607 98.8827 103.75 98.4538 103.75 98.125C103.75 97.7834 103.594 97.3313 103.05 96.7604C102.5 96.184 101.628 95.569 100.398 94.9471C97.9425 93.7052 94.3135 92.5592 89.7432 91.5997C89.0676 91.4578 88.6348 90.7952 88.7767 90.1195C88.9185 89.4439 89.5812 89.0112 90.2568 89.153C94.9192 90.1318 98.7902 91.3323 101.526 92.7162C102.893 93.4071 104.039 94.175 104.859 95.035C105.685 95.9006 106.25 96.9388 106.25 98.125C106.25 99.2633 105.729 100.267 104.957 101.11C104.192 101.947 103.123 102.693 101.852 103.366C99.3061 104.712 95.7049 105.886 91.3604 106.858C82.6512 108.806 70.6804 110 57.5 110C44.3196 110 32.3488 108.806 23.6396 106.858C19.2951 105.886 15.6939 104.712 13.1484 103.366C11.8768 102.693 10.8079 101.947 10.0427 101.11C9.27122 100.267 8.75 99.2633 8.75 98.125C8.75 96.9388 9.31536 95.9006 10.1408 95.035C10.961 94.175 12.1074 93.4071 13.4736 92.7162C16.2098 91.3323 20.0808 90.1318 24.7432 89.153C25.4188 89.0112 26.0815 89.4439 26.2233 90.1195Z" fill="#AC7349"/>
<path fill-rule="evenodd" clip-rule="evenodd" d="M94.3867 80.8968C94.0394 80.3277 93.9338 79.6434 94.0934 78.996C94.4575 77.5187 94.7075 75.9819 94.8513 74.4142C94.9189 73.6772 95.3096 73.008 95.9182 72.5869C96.5267 72.1657 97.2906 72.0358 98.0041 72.2322C98.6368 72.4062 99.3055 72.5 100 72.5C104.142 72.5 107.5 69.1421 107.5 65C107.5 60.8579 104.142 57.5 100 57.5C99.3488 57.5 98.7204 57.5824 98.1232 57.7361C97.3747 57.9288 96.5792 57.7644 95.9684 57.2909C95.3576 56.8174 95.0001 56.0879 95.0001 55.315V50.2074C95.0001 48.9863 95.8822 47.9439 97.0864 47.7419C98.0356 47.5826 99.0091 47.5 100 47.5C109.665 47.5 117.5 55.335 117.5 65C117.5 74.665 109.665 82.5 100 82.5C98.6063 82.5 97.2475 82.3366 95.943 82.0267C95.2943 81.8727 94.734 81.4659 94.3867 80.8968ZM99.8185 74.9984C98.962 74.9831 98.1318 74.8602 97.3409 74.6426C97.2638 75.4822 97.1581 76.3168 97.0222 77.1425C96.9142 77.7982 96.7872 78.4483 96.6403 79.0908C96.6018 79.2592 96.5619 79.4271 96.5207 79.5944C97.3249 79.7854 98.1542 79.9117 99.0027 79.9674C99.3324 79.989 99.665 80 100 80C108.284 80 115 73.2843 115 65C115 56.7157 108.284 50 100 50C99.1483 50 98.3131 50.071 97.5001 50.2074V55.315C98.2991 55.1094 99.1368 55 100 55C105.523 55 110 59.4772 110 65C110 70.5228 105.523 75 100 75C99.9394 75 99.8789 74.9995 99.8185 74.9984Z" fill="#AC7349"/>
<path fill-rule="evenodd" clip-rule="evenodd" d="M18.75 38.75C19.4404 38.75 20 39.3096 20 40V71.2609C20 79.986 23.0176 88.4323 30.5782 92.4429C36.7597 95.722 45.6659 98.75 57.5 98.75C69.3341 98.75 78.2403 95.722 84.4218 92.4429C91.9824 88.4323 95 79.986 95 71.2609V40C95 39.3096 95.5596 38.75 96.25 38.75C96.9404 38.75 97.5 39.3096 97.5 40V71.2609C97.5 80.4363 94.3194 90.0226 85.5933 94.6515C79.0852 98.1038 69.7796 101.25 57.5 101.25C45.2204 101.25 35.9148 98.1038 29.4067 94.6515C20.6806 90.0226 17.5 80.4363 17.5 71.2609V40C17.5 39.3096 18.0596 38.75 18.75 38.75Z" fill="#AC7349"/>
<path fill-rule="evenodd" clip-rule="evenodd" d="M22.5 45.949V71.7888C22.5 78.5017 24.7214 85.199 30.3851 88.8025C36.1258 92.4549 45.0791 96.25 57.5 96.25C69.9209 96.25 78.8742 92.4549 84.6149 88.8025C90.2786 85.199 92.5 78.5017 92.5 71.7888V45.949C87.0827 47.5875 73.455 48.75 57.5 48.75C41.545 48.75 27.9173 47.5875 22.5 45.949Z" fill="#FFE7CB"/>
<path d="M84.6149 88.8025C90.2786 85.199 92.5 78.5017 92.5 71.7888V45.949C89.5793 46.8324 84.2719 47.5774 77.5 48.0765V92.4784C80.2625 91.3445 82.6306 90.065 84.6149 88.8025Z" fill="#F3D4AF"/>
<path d="M30.3851 88.8025C24.7214 85.199 22.5 78.5017 22.5 71.7888V45.949C24.8571 46.6619 28.7687 47.2848 33.75 47.7609V90.7404C32.526 90.1047 31.4049 89.4513 30.3851 88.8025Z" fill="#FFF3E4"/>
<path d="M22.5 59.699V71.7888C22.5 78.5017 24.7214 85.199 30.3851 88.8025C36.1258 92.4549 45.0791 96.25 57.5 96.25C69.9209 96.25 78.8742 92.4549 84.6149 88.8025C90.2786 85.199 92.5 78.5017 92.5 71.7888V59.699C87.0827 61.3375 73.455 62.5 57.5 62.5C41.545 62.5 27.9173 61.3375 22.5 59.699Z" fill="#75370A"/>
<path d="M84.6149 88.8025C90.2786 85.199 92.5 78.5017 92.5 71.7888V59.699C89.5793 60.5824 84.2719 61.3274 77.5 61.8265V92.4784C80.2625 91.3445 82.6306 90.065 84.6149 88.8025Z" fill="#572908"/>
<path d="M30.3851 88.8025C24.7214 85.199 22.5 78.5017 22.5 71.7888V59.699C24.8571 60.4119 28.7687 61.0348 33.75 61.5109V90.7404C32.526 90.1046 31.4049 89.4513 30.3851 88.8025Z" fill="#8E4917"/>
<path fill-rule="evenodd" clip-rule="evenodd" d="M84.3062 44.9517C77.397 45.7578 67.9207 46.25 57.5 46.25C47.0793 46.25 37.603 45.7578 30.6938 44.9517C27.256 44.5507 24.3626 44.0618 22.2822 43.4879C21.2614 43.2064 20.2911 42.8661 19.5236 42.4285C19.1405 42.2101 18.6888 41.9012 18.3079 41.4637C17.913 41.01 17.5 40.3007 17.5 39.375C17.5 38.4493 17.913 37.74 18.3079 37.2863C18.6888 36.8488 19.1405 36.5399 19.5236 36.3215C20.2911 35.8839 21.2614 35.5436 22.2822 35.2621C24.3626 34.6882 27.256 34.1993 30.6938 33.7982C37.603 32.9922 47.0793 32.5 57.5 32.5C67.9207 32.5 77.397 32.9922 84.3062 33.7982C87.744 34.1993 90.6374 34.6882 92.7178 35.2621C93.7386 35.5436 94.7089 35.8839 95.4764 36.3215C95.8595 36.5399 96.3112 36.8488 96.6921 37.2863C97.087 37.74 97.5 38.4493 97.5 39.375C97.5 40.3007 97.087 41.01 96.6921 41.4637C96.3112 41.9012 95.8595 42.2101 95.4764 42.4285C94.7089 42.8661 93.7386 43.2064 92.7178 43.4879C90.6374 44.0618 87.744 44.5507 84.3062 44.9517ZM57.5 43.75C78.2107 43.75 95 41.7912 95 39.375C95 36.9588 78.2107 35 57.5 35C36.7893 35 20 36.9588 20 39.375C20 41.7912 36.7893 43.75 57.5 43.75Z" fill="#AC7349"/>
<path fill-rule="evenodd" clip-rule="evenodd" d="M27.5 50C28.1904 50 28.75 50.5596 28.75 51.25V58.75C28.75 59.4404 28.1904 60 27.5 60C26.8096 60 26.25 59.4404 26.25 58.75V51.25C26.25 50.5596 26.8096 50 27.5 50Z" fill="white"/>
<path d="M20 31.1513C20 25.4286 24.6816 20.7895 30.4567 20.7895C31.4515 20.7895 32.4138 20.9271 33.3254 21.1843C35.1623 16.1209 40.0511 12.5 45.7933 12.5C51.2507 12.5 55.9372 15.7706 57.9655 20.4417C59.3433 19.7794 60.8899 19.4079 62.524 19.4079C67.0915 19.4079 70.975 22.3097 72.3995 26.3544C74.3228 26.5382 76.0558 27.3674 77.3751 28.6209C78.9809 27.1879 81.1064 26.3158 83.4375 26.3158C88.4426 26.3158 92.5 30.3364 92.5 35.2961C92.5 36.52 92.2529 37.6867 91.8054 38.75C91.8054 38.75 88.5237 42.5 57.5765 42.5C26.6292 42.5 23.3475 38.75 23.3475 38.75C21.2885 36.8576 20 34.1536 20 31.1513Z" fill="white"/>
<path d="M43.75 20C43.75 21.3807 42.6307 22.5 41.25 22.5C39.8693 22.5 38.75 21.3807 38.75 20C38.75 18.6193 39.8693 17.5 41.25 17.5C42.6307 17.5 43.75 18.6193 43.75 20Z" fill="#FFE7CB"/>
<path d="M36.25 26.25C36.25 27.6307 35.1307 28.75 33.75 28.75C32.3693 28.75 31.25 27.6307 31.25 26.25C31.25 24.8693 32.3693 23.75 33.75 23.75C35.1307 23.75 36.25 24.8693 36.25 26.25Z" fill="#FFE7CB"/>
<path d="M45 36.875C45 37.9105 44.1605 38.75 43.125 38.75C42.0895 38.75 41.25 37.9105 41.25 36.875C41.25 35.8395 42.0895 35 43.125 35C44.1605 35 45 35.8395 45 36.875Z" fill="#FFE7CB"/>
<path d="M55 25.625C55 26.6605 54.1605 27.5 53.125 27.5C52.0895 27.5 51.25 26.6605 51.25 25.625C51.25 24.5895 52.0895 23.75 53.125 23.75C54.1605 23.75 55 24.5895 55 25.625Z" fill="#FFE7CB"/>
<path d="M70 36.875C70 37.9105 69.1605 38.75 68.125 38.75C67.0895 38.75 66.25 37.9105 66.25 36.875C66.25 35.8395 67.0895 35 68.125 35C69.1605 35 70 35.8395 70 36.875Z" fill="#FFE7CB"/>
<path d="M63.75 37.5C63.75 38.8807 62.6307 40 61.25 40C59.8693 40 58.75 38.8807 58.75 37.5C58.75 36.1193 59.8693 35 61.25 35C62.6307 35 63.75 36.1193 63.75 37.5Z" fill="#FFE7CB"/>
<path d="M76.25 33.75C76.25 35.1307 75.1307 36.25 73.75 36.25C72.3693 36.25 71.25 35.1307 71.25 33.75C71.25 32.3693 72.3693 31.25 73.75 31.25C75.1307 31.25 76.25 32.3693 76.25 33.75Z" fill="#FFE7CB"/>
<path d="M28.75 30C28.75 31.3807 27.6307 32.5 26.25 32.5C24.8693 32.5 23.75 31.3807 23.75 30C23.75 28.6193 24.8693 27.5 26.25 27.5C27.6307 27.5 28.75 28.6193 28.75 30Z" fill="#FFE7CB"/>
<path d="M52.5 20C52.5 21.3807 51.3807 22.5 50 22.5C48.6193 22.5 47.5 21.3807 47.5 20C47.5 18.6193 48.6193 17.5 50 17.5C51.3807 17.5 52.5 18.6193 52.5 20Z" fill="#FFE7CB"/>
<path d="M55 35.625C55 37.3509 53.6009 38.75 51.875 38.75C50.1491 38.75 48.75 37.3509 48.75 35.625C48.75 33.8991 50.1491 32.5 51.875 32.5C53.6009 32.5 55 33.8991 55 35.625Z" fill="#FFE7CB"/>
<path d="M48.75 28.75C48.75 30.8211 47.0711 32.5 45 32.5C42.9289 32.5 41.25 30.8211 41.25 28.75C41.25 26.6789 42.9289 25 45 25C47.0711 25 48.75 26.6789 48.75 28.75Z" fill="#FFE7CB"/>
<path d="M37.5 35C37.5 37.0711 35.8211 38.75 33.75 38.75C31.6789 38.75 30 37.0711 30 35C30 32.9289 31.6789 31.25 33.75 31.25C35.8211 31.25 37.5 32.9289 37.5 35Z" fill="#FFE7CB"/>
<path d="M67.5 28.125C67.5 30.5412 65.5412 32.5 63.125 32.5C60.7088 32.5 58.75 30.5412 58.75 28.125C58.75 25.7088 60.7088 23.75 63.125 23.75C65.5412 23.75 67.5 25.7088 67.5 28.125Z" fill="#FFE7CB"/>
<path d="M87.5 33.75C87.5 35.8211 85.8211 37.5 83.75 37.5C81.6789 37.5 80 35.8211 80 33.75C80 31.6789 81.6789 30 83.75 30C85.8211 30 87.5 31.6789 87.5 33.75Z" fill="#FFE7CB"/>
<path d="M78.75 81.7045C78.75 82.7087 77.936 83.5227 76.9318 83.5227C75.9277 83.5227 75.1136 82.7087 75.1136 81.7045C75.1136 80.7004 75.9277 79.8864 76.9318 79.8864C77.936 79.8864 78.75 80.7004 78.75 81.7045Z" fill="#572908"/>
<path d="M73.2955 78.0682C73.2955 79.0723 72.4815 79.8864 71.4773 79.8864C70.4731 79.8864 69.6591 79.0723 69.6591 78.0682C69.6591 77.064 70.4731 76.25 71.4773 76.25C72.4815 76.25 73.2955 77.064 73.2955 78.0682Z" fill="#572908"/>
<path d="M69.8864 73.0682C69.8864 74.0723 69.0723 74.8864 68.0682 74.8864C67.064 74.8864 66.25 74.0723 66.25 73.0682C66.25 72.064 67.064 71.25 68.0682 71.25C69.0723 71.25 69.8864 72.064 69.8864 73.0682Z" fill="#572908"/>
<path d="M65.1137 79.0909C65.1137 79.844 64.5032 80.4546 63.7501 80.4546C62.997 80.4546 62.3865 79.844 62.3865 79.0909C62.3865 78.3378 62.997 77.7273 63.7501 77.7273C64.5032 77.7273 65.1137 78.3378 65.1137 79.0909Z" fill="#572908"/>
<path d="M62.7273 73.8636C62.7273 74.6168 62.1168 75.2273 61.3636 75.2273C60.6105 75.2273 60 74.6168 60 73.8636C60 73.1105 60.6105 72.5 61.3636 72.5C62.1168 72.5 62.7273 73.1105 62.7273 73.8636Z" fill="#572908"/>
<path d="M58.9773 81.3636C58.9773 82.1168 58.3668 82.7273 57.6136 82.7273C56.8605 82.7273 56.25 82.1168 56.25 81.3636C56.25 80.6105 56.8605 80 57.6136 80C58.3668 80 58.9773 80.6105 58.9773 81.3636Z" fill="#572908"/>
<path d="M58.9773 90.1136C58.9773 90.8668 58.3668 91.4773 57.6136 91.4773C56.8605 91.4773 56.25 90.8668 56.25 90.1136C56.25 89.3605 56.8605 88.75 57.6136 88.75C58.3668 88.75 58.9773 89.3605 58.9773 90.1136Z" fill="#572908"/>
<path d="M66.0227 90.7955C66.0227 91.7996 65.2087 92.6137 64.2045 92.6137C63.2004 92.6137 62.3864 91.7996 62.3864 90.7955C62.3864 89.7913 63.2004 88.9773 64.2045 88.9773C65.2087 88.9773 66.0227 89.7913 66.0227 90.7955Z" fill="#572908"/>
<path d="M62.7273 84.5455C62.7273 85.2986 62.1168 85.9091 61.3636 85.9091C60.6105 85.9091 60 85.2986 60 84.5455C60 83.7923 60.6105 83.1818 61.3636 83.1818C62.1168 83.1818 62.7273 83.7923 62.7273 84.5455Z" fill="#572908"/>
<path d="M71.4772 84.8863C71.4772 86.1415 70.4597 87.159 69.2045 87.159C67.9493 87.159 66.9318 86.1415 66.9318 84.8863C66.9318 83.6311 67.9493 82.6136 69.2045 82.6136C70.4597 82.6136 71.4772 83.6311 71.4772 84.8863Z" fill="#572908"/>
<path d="M79.5455 72.2727C79.5455 73.5279 78.5279 74.5455 77.2727 74.5455C76.0175 74.5455 75 73.5279 75 72.2727C75 71.0175 76.0175 70 77.2727 70C78.5279 70 79.5455 71.0175 79.5455 72.2727Z" fill="#572908"/>
<path d="M76.9318 88.0682C76.9318 89.0723 76.1178 89.8864 75.1137 89.8864C74.1095 89.8864 73.2955 89.0723 73.2955 88.0682C73.2955 87.064 74.1095 86.25 75.1137 86.25C76.1178 86.25 76.9318 87.064 76.9318 88.0682Z" fill="#572908"/>
</svg>
