<svg width="110" height="98" viewBox="0 0 110 98" fill="none" xmlns="http://www.w3.org/2000/svg">
<path fill-rule="evenodd" clip-rule="evenodd" d="M18.2233 78.1195C18.3652 78.7952 17.9325 79.4578 17.2568 79.5997C12.6865 80.5592 9.05746 81.7052 6.60189 82.9471C5.37219 83.569 4.49969 84.184 3.95001 84.7604C3.40556 85.3313 3.25 85.7834 3.25 86.125C3.25 86.4538 3.39335 86.8827 3.88732 87.4226C4.38762 87.9695 5.1851 88.5571 6.31716 89.1558C8.57893 90.3519 11.934 91.4673 16.1853 92.4182C24.6677 94.3156 36.4468 95.5 49.5 95.5C62.5532 95.5 74.3323 94.3156 82.8147 92.4182C87.066 91.4673 90.4211 90.3519 92.6828 89.1558C93.8149 88.5571 94.6124 87.9695 95.1127 87.4226C95.6066 86.8827 95.75 86.4538 95.75 86.125C95.75 85.7834 95.5944 85.3313 95.05 84.7604C94.5003 84.184 93.6278 83.569 92.3981 82.9471C89.9425 81.7052 86.3135 80.5592 81.7432 79.5997C81.0675 79.4578 80.6348 78.7952 80.7767 78.1195C80.9185 77.4439 81.5812 77.0112 82.2568 77.153C86.9192 78.1318 90.7902 79.3323 93.5264 80.7162C94.8926 81.4071 96.039 82.175 96.8592 83.035C97.6846 83.9006 98.25 84.9388 98.25 86.125C98.25 87.2633 97.7288 88.2667 96.9573 89.1101C96.1921 89.9465 95.1232 90.6933 93.8516 91.3658C91.3061 92.7119 87.7049 93.8861 83.3604 94.8579C74.6512 96.806 62.6804 98 49.5 98C36.3196 98 24.3488 96.806 15.6396 94.8579C11.2951 93.8861 7.6939 92.7119 5.14841 91.3658C3.87684 90.6933 2.80793 89.9465 2.04274 89.1101C1.27122 88.2667 0.75 87.2633 0.75 86.125C0.75 84.9388 1.31536 83.9006 2.14079 83.035C2.96101 82.175 4.10738 81.4071 5.47359 80.7162C8.20984 79.3323 12.0808 78.1318 16.7432 77.153C17.4188 77.0112 18.0815 77.4439 18.2233 78.1195Z" fill="#AC7349"/>
<path fill-rule="evenodd" clip-rule="evenodd" d="M86.3868 68.8968C86.0395 68.3277 85.9338 67.6434 86.0934 66.996C86.4576 65.5187 86.7076 63.9819 86.8514 62.4142C86.919 61.6772 87.3097 61.008 87.9182 60.5869C88.5268 60.1657 89.2906 60.0358 90.0042 60.2322C90.6369 60.4062 91.3056 60.5 92.0001 60.5C96.1423 60.5 99.5001 57.1421 99.5001 53C99.5001 48.8579 96.1423 45.5 92.0001 45.5C91.3489 45.5 90.7205 45.5824 90.1233 45.7361C89.3748 45.9288 88.5793 45.7644 87.9684 45.2909C87.3576 44.8174 87.0001 44.0879 87.0001 43.315V38.2074C87.0001 36.9863 87.8822 35.9439 89.0865 35.7419C90.0356 35.5826 91.0092 35.5 92.0001 35.5C101.665 35.5 109.5 43.335 109.5 53C109.5 62.665 101.665 70.5 92.0001 70.5C90.6064 70.5 89.2476 70.3366 87.943 70.0267C87.2944 69.8727 86.7341 69.4659 86.3868 68.8968ZM91.8186 62.9984C90.9621 62.9831 90.1319 62.8602 89.3409 62.6426C89.2639 63.4822 89.1582 64.3168 89.0223 65.1425C88.9143 65.7983 88.7872 66.4484 88.6404 67.0909C88.6019 67.2593 88.562 67.4271 88.5208 67.5944C89.325 67.7854 90.1543 67.9117 91.0028 67.9674C91.3325 67.989 91.665 68 92.0001 68C100.284 68 107 61.2843 107 53C107 44.7157 100.284 38 92.0001 38C91.1484 38 90.3132 38.071 89.5001 38.2074V43.315C90.2992 43.1094 91.1369 43 92.0001 43C97.523 43 102 47.4772 102 53C102 58.5228 97.523 63 92.0001 63C91.9395 63 91.879 62.9995 91.8186 62.9984Z" fill="#AC7349"/>
<path fill-rule="evenodd" clip-rule="evenodd" d="M10.75 26.75C11.4404 26.75 12 27.3096 12 28V59.2609C12 67.986 15.0176 76.4323 22.5782 80.4429C28.7597 83.7221 37.6659 86.75 49.5 86.75C61.3341 86.75 70.2403 83.722 76.4218 80.4429C83.9824 76.4323 87 67.986 87 59.2609V28C87 27.3096 87.5596 26.75 88.25 26.75C88.9404 26.75 89.5 27.3096 89.5 28V59.2609C89.5 68.4363 86.3194 78.0226 77.5933 82.6515C71.0852 86.1038 61.7796 89.25 49.5 89.25C37.2204 89.25 27.9148 86.1038 21.4067 82.6515C12.6806 78.0226 9.5 68.4363 9.5 59.2609V28C9.5 27.3096 10.0596 26.75 10.75 26.75Z" fill="#AC7349"/>
<path fill-rule="evenodd" clip-rule="evenodd" d="M14.5 33.949V59.7888C14.5 66.5017 16.7214 73.199 22.3851 76.8025C28.1258 80.4549 37.0791 84.25 49.5 84.25C61.9209 84.25 70.8742 80.4549 76.6149 76.8025C82.2786 73.199 84.5 66.5017 84.5 59.7888V33.949C79.0827 35.5875 65.455 36.75 49.5 36.75C33.545 36.75 19.9173 35.5875 14.5 33.949Z" fill="#75370A"/>
<path d="M76.6149 76.8025C82.2786 73.199 84.5 66.5017 84.5 59.7888V33.949C81.5793 34.8324 76.2719 35.5774 69.5 36.0765V80.4784C72.2625 79.3445 74.6306 78.065 76.6149 76.8025Z" fill="#572908"/>
<path d="M22.3851 76.8025C16.7214 73.199 14.5 66.5017 14.5 59.7888V33.949C16.8571 34.6619 20.7687 35.2848 25.75 35.7609V78.7404C24.526 78.1047 23.4049 77.4513 22.3851 76.8025Z" fill="#8E4917"/>
<path fill-rule="evenodd" clip-rule="evenodd" d="M76.3062 32.9518C69.397 33.7578 59.9207 34.25 49.5 34.25C39.0793 34.25 29.603 33.7578 22.6938 32.9518C19.256 32.5507 16.3626 32.0618 14.2822 31.4879C13.2614 31.2064 12.2911 30.8661 11.5236 30.4285C11.1405 30.2101 10.6888 29.9012 10.3079 29.4637C9.91301 29.01 9.5 28.3007 9.5 27.375C9.5 26.4493 9.91301 25.74 10.3079 25.2863C10.6888 24.8488 11.1405 24.5399 11.5236 24.3215C12.2911 23.8839 13.2614 23.5436 14.2822 23.2621C16.3626 22.6882 19.256 22.1993 22.6938 21.7982C29.603 20.9922 39.0793 20.5 49.5 20.5C59.9207 20.5 69.397 20.9922 76.3062 21.7982C79.744 22.1993 82.6374 22.6882 84.7178 23.2621C85.7386 23.5436 86.7089 23.8839 87.4764 24.3215C87.8595 24.5399 88.3112 24.8488 88.6921 25.2863C89.087 25.74 89.5 26.4493 89.5 27.375C89.5 28.3007 89.087 29.01 88.6921 29.4637C88.3112 29.9012 87.8595 30.2101 87.4764 30.4285C86.7089 30.8661 85.7386 31.2064 84.7178 31.4879C82.6374 32.0618 79.744 32.5507 76.3062 32.9518ZM49.5 31.75C70.2107 31.75 87 29.7912 87 27.375C87 24.9588 70.2107 23 49.5 23C28.7893 23 12 24.9588 12 27.375C12 29.7912 28.7893 31.75 49.5 31.75Z" fill="#AC7349"/>
<path fill-rule="evenodd" clip-rule="evenodd" d="M19.5 38C20.1904 38 20.75 38.5596 20.75 39.25V46.75C20.75 47.4404 20.1904 48 19.5 48C18.8096 48 18.25 47.4404 18.25 46.75V39.25C18.25 38.5596 18.8096 38 19.5 38Z" fill="white"/>
<path d="M12 19.1513C12 13.4286 16.6816 8.78947 22.4567 8.78947C23.4515 8.78947 24.4138 8.92713 25.3254 9.18425C27.1623 4.12091 32.0511 0.5 37.7933 0.5C43.2507 0.5 47.9372 3.77061 49.9655 8.4417C51.3433 7.77935 52.8899 7.40789 54.524 7.40789C59.0915 7.40789 62.975 10.3097 64.3995 14.3544C66.3228 14.5382 68.0558 15.3674 69.3751 16.6209C70.9809 15.1879 73.1064 14.3158 75.4375 14.3158C80.4426 14.3158 84.5 18.3364 84.5 23.2961C84.5 24.52 84.2529 25.6867 83.8054 26.75C83.8054 26.75 80.5237 30.5 49.5764 30.5C18.6292 30.5 15.3475 26.75 15.3475 26.75C13.2885 24.8576 12 22.1536 12 19.1513Z" fill="white"/>
<path d="M35.75 8C35.75 9.38071 34.6307 10.5 33.25 10.5C31.8693 10.5 30.75 9.38071 30.75 8C30.75 6.61929 31.8693 5.5 33.25 5.5C34.6307 5.5 35.75 6.61929 35.75 8Z" fill="#FFE7CB"/>
<path d="M28.25 14.25C28.25 15.6307 27.1307 16.75 25.75 16.75C24.3693 16.75 23.25 15.6307 23.25 14.25C23.25 12.8693 24.3693 11.75 25.75 11.75C27.1307 11.75 28.25 12.8693 28.25 14.25Z" fill="#FFE7CB"/>
<path d="M37 24.875C37 25.9105 36.1605 26.75 35.125 26.75C34.0895 26.75 33.25 25.9105 33.25 24.875C33.25 23.8395 34.0895 23 35.125 23C36.1605 23 37 23.8395 37 24.875Z" fill="#FFE7CB"/>
<path d="M47 13.625C47 14.6605 46.1605 15.5 45.125 15.5C44.0895 15.5 43.25 14.6605 43.25 13.625C43.25 12.5895 44.0895 11.75 45.125 11.75C46.1605 11.75 47 12.5895 47 13.625Z" fill="#FFE7CB"/>
<path d="M62 24.875C62 25.9105 61.1605 26.75 60.125 26.75C59.0895 26.75 58.25 25.9105 58.25 24.875C58.25 23.8395 59.0895 23 60.125 23C61.1605 23 62 23.8395 62 24.875Z" fill="#FFE7CB"/>
<path d="M55.75 25.5C55.75 26.8807 54.6307 28 53.25 28C51.8693 28 50.75 26.8807 50.75 25.5C50.75 24.1193 51.8693 23 53.25 23C54.6307 23 55.75 24.1193 55.75 25.5Z" fill="#FFE7CB"/>
<path d="M68.25 21.75C68.25 23.1307 67.1307 24.25 65.75 24.25C64.3693 24.25 63.25 23.1307 63.25 21.75C63.25 20.3693 64.3693 19.25 65.75 19.25C67.1307 19.25 68.25 20.3693 68.25 21.75Z" fill="#FFE7CB"/>
<path d="M20.75 18C20.75 19.3807 19.6307 20.5 18.25 20.5C16.8693 20.5 15.75 19.3807 15.75 18C15.75 16.6193 16.8693 15.5 18.25 15.5C19.6307 15.5 20.75 16.6193 20.75 18Z" fill="#FFE7CB"/>
<path d="M44.5 8C44.5 9.38071 43.3807 10.5 42 10.5C40.6193 10.5 39.5 9.38071 39.5 8C39.5 6.61929 40.6193 5.5 42 5.5C43.3807 5.5 44.5 6.61929 44.5 8Z" fill="#FFE7CB"/>
<path d="M47 23.625C47 25.3509 45.6009 26.75 43.875 26.75C42.1491 26.75 40.75 25.3509 40.75 23.625C40.75 21.8991 42.1491 20.5 43.875 20.5C45.6009 20.5 47 21.8991 47 23.625Z" fill="#FFE7CB"/>
<path d="M40.75 16.75C40.75 18.8211 39.0711 20.5 37 20.5C34.9289 20.5 33.25 18.8211 33.25 16.75C33.25 14.6789 34.9289 13 37 13C39.0711 13 40.75 14.6789 40.75 16.75Z" fill="#FFE7CB"/>
<path d="M29.5 23C29.5 25.0711 27.8211 26.75 25.75 26.75C23.6789 26.75 22 25.0711 22 23C22 20.9289 23.6789 19.25 25.75 19.25C27.8211 19.25 29.5 20.9289 29.5 23Z" fill="#FFE7CB"/>
<path d="M59.5 16.125C59.5 18.5412 57.5412 20.5 55.125 20.5C52.7088 20.5 50.75 18.5412 50.75 16.125C50.75 13.7088 52.7088 11.75 55.125 11.75C57.5412 11.75 59.5 13.7088 59.5 16.125Z" fill="#FFE7CB"/>
<path d="M79.5 21.75C79.5 23.8211 77.8211 25.5 75.75 25.5C73.6789 25.5 72 23.8211 72 21.75C72 19.6789 73.6789 18 75.75 18C77.8211 18 79.5 19.6789 79.5 21.75Z" fill="#FFE7CB"/>
<path d="M70.7499 69.7045C70.7499 70.7087 69.9359 71.5227 68.9317 71.5227C67.9276 71.5227 67.1135 70.7087 67.1135 69.7045C67.1135 68.7004 67.9276 67.8864 68.9317 67.8864C69.9359 67.8864 70.7499 68.7004 70.7499 69.7045Z" fill="#572908"/>
<path d="M65.2955 66.0682C65.2955 67.0723 64.4815 67.8864 63.4774 67.8864C62.4732 67.8864 61.6592 67.0723 61.6592 66.0682C61.6592 65.064 62.4732 64.25 63.4774 64.25C64.4815 64.25 65.2955 65.064 65.2955 66.0682Z" fill="#572908"/>
<path d="M61.8864 61.0682C61.8864 62.0723 61.0723 62.8864 60.0682 62.8864C59.064 62.8864 58.25 62.0723 58.25 61.0682C58.25 60.064 59.064 59.25 60.0682 59.25C61.0723 59.25 61.8864 60.064 61.8864 61.0682Z" fill="#572908"/>
<path d="M57.1137 67.0909C57.1137 67.844 56.5032 68.4546 55.7501 68.4546C54.997 68.4546 54.3865 67.844 54.3865 67.0909C54.3865 66.3378 54.997 65.7273 55.7501 65.7273C56.5032 65.7273 57.1137 66.3378 57.1137 67.0909Z" fill="#572908"/>
<path d="M54.7273 61.8636C54.7273 62.6168 54.1168 63.2273 53.3636 63.2273C52.6105 63.2273 52 62.6168 52 61.8636C52 61.1105 52.6105 60.5 53.3636 60.5C54.1168 60.5 54.7273 61.1105 54.7273 61.8636Z" fill="#572908"/>
<path d="M50.9773 69.3636C50.9773 70.1168 50.3668 70.7273 49.6136 70.7273C48.8605 70.7273 48.25 70.1168 48.25 69.3636C48.25 68.6105 48.8605 68 49.6136 68C50.3668 68 50.9773 68.6105 50.9773 69.3636Z" fill="#572908"/>
<path d="M50.9773 78.1136C50.9773 78.8668 50.3668 79.4773 49.6136 79.4773C48.8605 79.4773 48.25 78.8668 48.25 78.1136C48.25 77.3605 48.8605 76.75 49.6136 76.75C50.3668 76.75 50.9773 77.3605 50.9773 78.1136Z" fill="#572908"/>
<path d="M58.0228 78.7955C58.0228 79.7996 57.2088 80.6137 56.2047 80.6137C55.2005 80.6137 54.3865 79.7996 54.3865 78.7955C54.3865 77.7913 55.2005 76.9773 56.2047 76.9773C57.2088 76.9773 58.0228 77.7913 58.0228 78.7955Z" fill="#572908"/>
<path d="M54.7273 72.5455C54.7273 73.2986 54.1168 73.9091 53.3636 73.9091C52.6105 73.9091 52 73.2986 52 72.5455C52 71.7923 52.6105 71.1818 53.3636 71.1818C54.1168 71.1818 54.7273 71.7923 54.7273 72.5455Z" fill="#572908"/>
<path d="M63.4771 72.8863C63.4771 74.1415 62.4596 75.159 61.2044 75.159C59.9492 75.159 58.9316 74.1415 58.9316 72.8863C58.9316 71.6311 59.9492 70.6136 61.2044 70.6136C62.4596 70.6136 63.4771 71.6311 63.4771 72.8863Z" fill="#572908"/>
<path d="M71.5455 60.2727C71.5455 61.5279 70.5279 62.5455 69.2727 62.5455C68.0175 62.5455 67 61.5279 67 60.2727C67 59.0175 68.0175 58 69.2727 58C70.5279 58 71.5455 59.0175 71.5455 60.2727Z" fill="#572908"/>
<path d="M68.9318 76.0682C68.9318 77.0723 68.1177 77.8864 67.1136 77.8864C66.1094 77.8864 65.2954 77.0723 65.2954 76.0682C65.2954 75.064 66.1094 74.25 67.1136 74.25C68.1177 74.25 68.9318 75.064 68.9318 76.0682Z" fill="#572908"/>
</svg>
