<svg width="21" height="16" viewBox="0 0 21 16" fill="none" xmlns="http://www.w3.org/2000/svg">
<path d="M0 1.09091C0 0.488406 0.391755 0 0.875 0H20.125C20.6082 0 21 0.488406 21 1.09091C21 1.69339 20.6082 2.18181 20.125 2.18181H0.875C0.391755 2.18181 0 1.69339 0 1.09091Z" fill="#1E1E1E"/>
<path d="M0.875 6.90898C0.391755 6.90898 0 7.39742 0 7.99989C0 8.60236 0.391755 9.09079 0.875 9.09079H20.125C20.6082 9.09079 21 8.60236 21 7.99989C21 7.39742 20.6082 6.90898 20.125 6.90898H0.875Z" fill="#1E1E1E"/>
<path d="M0 14.9091C0 14.3065 0.391755 13.8182 0.875 13.8182H20.125C20.6082 13.8182 21 14.3065 21 14.9091C21 15.5116 20.6082 16 20.125 16H0.875C0.391755 16 0 15.5116 0 14.9091Z" fill="#1E1E1E"/>
</svg>
