<svg width="69" height="69" viewBox="0 0 69 69" fill="none" xmlns="http://www.w3.org/2000/svg">
<g clip-path="url(#clip0_74_267)">
<rect width="69" height="69" rx="34.5" fill="url(#paint0_linear_74_267)"/>
<path d="M41.8598 40.48V45.54C41.8598 46.0409 34.4998 47.5576 34.4998 47.5576C34.4998 47.5576 27.1398 46.2546 27.1398 45.54C27.1398 44.1876 27.1674 37.398 27.1398 31.0932C23.8435 26.8205 23.8435 24.15 26.4498 21.39C29.0562 18.63 47.6098 17.25 47.6098 17.25C47.6098 17.25 49.0018 30.6383 49.2198 34.27C49.3075 35.7305 50.2548 40.48 46.5748 40.48H41.8598Z" fill="url(#paint1_linear_74_267)"/>
<path d="M41.8599 40.0483V42.8168C36.9303 41.9388 34.0937 40.0866 33.3499 37.26C35.4965 38.7167 38.2565 39.6367 41.6299 40.02C41.7065 40.0287 41.7832 40.0382 41.8599 40.0483Z" fill="#DE6530"/>
<path d="M58.6499 55.9608C60.1096 58.9289 61.2596 63.8356 62.0999 70.6808H6.8999C7.74048 63.8348 8.89048 58.9281 10.3499 55.9608C11.8044 53.0033 25.2999 47.3108 25.2999 47.3108L43.6999 47.3091C43.6999 47.3091 57.1981 53.0092 58.6499 55.9608Z" fill="url(#paint2_linear_74_267)"/>
<path d="M36.11 48.76L37.26 69.92H31.74L32.89 48.76C32.89 48.76 33.9634 47.61 34.5 47.61C35.0366 47.61 36.11 48.76 36.11 48.76Z" fill="url(#paint3_linear_74_267)"/>
<path d="M36.3426 53.0421L32.7693 50.9776L32.8898 48.76C33.6054 47.9933 34.1421 47.61 34.4998 47.61C34.8575 47.61 35.3942 47.9933 36.1098 48.76L36.3426 53.0421Z" fill="#D24B24"/>
<path d="M34.4998 47.6079L32.1998 51.75L25.0698 47.38L27.1398 44.39L34.4998 47.1088L41.8598 44.39L43.9298 47.38L36.7998 51.75L34.4998 47.6079Z" fill="white"/>
<path d="M30.1345 24.1974C29.4031 23.5692 28.5144 23.1463 27.2581 23.799C24.2799 25.3453 26.2565 31.311 29.5894 31.1946C30.7394 31.1546 30.2123 33.4463 27.1399 34.96C27.1399 32.545 23.4599 26.565 23.1379 21.1204C19.4349 19.7416 20.3549 14.2246 22.8971 14.2246C22.4914 9.16663 30.5899 6.55429 33.7257 9.45666C36.9149 5.63429 44.9649 7.58929 45.4509 10.9054C50.9863 7.95062 54.6249 16.4443 49.4419 19.7416C47.3091 21.0986 42.3199 21.6149 35.1179 21.6149C31.6619 21.6149 33.6494 29.704 34.7299 32.315C36.1099 35.65 43.8149 36.11 46.2299 35.765C48.1159 35.4956 49.1049 34.73 49.2199 34.27C50.9449 38.87 48.7599 41.63 45.3099 41.63C39.4449 41.63 33.5799 39.905 32.6599 35.65C31.9276 32.2637 31.9678 26.7987 30.1345 24.1974Z" fill="url(#paint4_linear_74_267)"/>
</g>
<defs>
<linearGradient id="paint0_linear_74_267" x1="34.5" y1="69" x2="34.5" y2="0" gradientUnits="userSpaceOnUse">
<stop stop-color="#FFC9B3"/>
<stop offset="1" stop-color="#FFD2C2"/>
</linearGradient>
<linearGradient id="paint1_linear_74_267" x1="36.9832" y1="17.25" x2="36.9832" y2="47.5576" gradientUnits="userSpaceOnUse">
<stop stop-color="#E6864E"/>
<stop offset="1" stop-color="#EB965E"/>
</linearGradient>
<linearGradient id="paint2_linear_74_267" x1="34.4999" y1="47.3091" x2="34.4999" y2="70.6808" gradientUnits="userSpaceOnUse">
<stop stop-color="#130027"/>
<stop offset="1" stop-color="#130017"/>
</linearGradient>
<linearGradient id="paint3_linear_74_267" x1="34.5" y1="69.92" x2="34.5" y2="47.61" gradientUnits="userSpaceOnUse">
<stop stop-color="#E6864E"/>
<stop offset="1" stop-color="#E67240"/>
</linearGradient>
<linearGradient id="paint4_linear_74_267" x1="36.3051" y1="7.3587" x2="36.3051" y2="41.63" gradientUnits="userSpaceOnUse">
<stop stop-color="#130027"/>
<stop offset="1" stop-color="#130017"/>
</linearGradient>
<clipPath id="clip0_74_267">
<rect width="69" height="69" rx="34.5" fill="white"/>
</clipPath>
</defs>
</svg>
